<?xml version="1.0" encoding="UTF-8" standalone="no"?>
<!DOCTYPE svg PUBLIC "-//W3C//DTD SVG 1.1//EN"
 "http://www.w3.org/Graphics/SVG/1.1/DTD/svg11.dtd">
<!-- Generated by graphviz version 2.43.0 (0)
 -->
<!-- Title: classes_somename Pages: 1 -->
<svg width="882pt" height="110pt"
 viewBox="0.00 0.00 881.50 109.80" xmlns="http://www.w3.org/2000/svg" xmlns:xlink="http://www.w3.org/1999/xlink">
<g id="graph0" class="graph" transform="scale(1 1) rotate(0) translate(4 105.8)">
<title>classes_somename</title>
<polygon fill="white" stroke="transparent" points="-4,4 -4,-105.8 877.5,-105.8 877.5,4 -4,4"/>
<!-- main.Output -->
<g id="node1" class="node">
<title>main.Output</title>
<polygon fill="none" stroke="black" points="0,-16.4 0,-85.4 212,-85.4 212,-16.4 0,-16.4"/>
<text text-anchor="start" x="60.5" y="-70.2" font-family="Times,serif" font-size="14.00">main.Output</text>
<polyline fill="none" stroke="black" points="0,-62.4 212,-62.4 "/>
<text text-anchor="start" x="87" y="-47.2" font-family="Times,serif" font-size="14.00">i : int</text>
<polyline fill="none" stroke="black" points="0,-39.4 212,-39.4 "/>
<text text-anchor="start" x="8" y="-24.2" font-family="Times,serif" font-size="14.00">print(type_of_message: str)</text>
</g>
<!-- main.TestClass -->
<g id="node2" class="node">
<title>main.TestClass</title>
<polygon fill="none" stroke="black" points="230,-15.5 230,-86.3 514,-86.3 514,-15.5 230,-15.5"/>
<text text-anchor="start" x="317.5" y="-71.1" font-family="Times,serif" font-size="14.00">main.TestClass</text>
<polyline fill="none" stroke="black" points="230,-63.3 514,-63.3 "/>
<polyline fill="none" stroke="black" points="230,-38.5 514,-38.5 "/>
<text text-anchor="start" x="238" y="-23.3" font-family="Times,serif" font-size="14.00">test_method(a: str, b: int, c: float): int</text>
</g>
<!-- main.TestClass2 -->
<g id="node3" class="node">
<title>main.TestClass2</title>
<polygon fill="none" stroke="black" points="532,-15.5 532,-86.3 666,-86.3 666,-15.5 532,-15.5"/>
<text text-anchor="start" x="540" y="-71.1" font-family="Times,serif" font-size="14.00">main.TestClass2</text>
<polyline fill="none" stroke="black" points="532,-63.3 666,-63.3 "/>
<polyline fill="none" stroke="black" points="532,-38.5 666,-38.5 "/>
<text text-anchor="start" x="596.5" y="-23.3" font-family="Times,serif" font-size="14.00"> </text>
</g>
<!-- somemodule.SomeClass -->
<g id="node4" class="node">
<title>somemodule.SomeClass</title>
<polygon fill="none" stroke="black" points="684.5,-0.5 684.5,-101.3 873.5,-101.3 873.5,-0.5 684.5,-0.5"/>
<text text-anchor="start" x="692.5" y="-86.1" font-family="Times,serif" font-size="14.00">somemodule.SomeClass</text>
<polyline fill="none" stroke="black" points="684.5,-78.3 873.5,-78.3 "/>
<polyline fill="none" stroke="black" points="684.5,-53.5 873.5,-53.5 "/>
<text text-anchor="start" x="715" y="-38.3" font-family="Times,serif" font-size="14.00">call_main()</text>
<text text-anchor="start" x="715" y="-23.3" font-family="Times,serif" font-size="14.00">iterator()</text>
<text text-anchor="start" x="715" y="-8.3" font-family="Times,serif" font-size="14.00">print_something()</text>
</g>
</g>
</svg>
