<?xml version="1.0" encoding="UTF-8" standalone="no"?>
<!DOCTYPE svg PUBLIC "-//W3C//DTD SVG 1.1//EN"
 "http://www.w3.org/Graphics/SVG/1.1/DTD/svg11.dtd">
<!-- Generated by graphviz version 2.43.0 (0)
 -->
<!-- Title: packages_somename Pages: 1 -->
<svg width="234pt" height="116pt"
 viewBox="0.00 0.00 234.00 116.00" xmlns="http://www.w3.org/2000/svg" xmlns:xlink="http://www.w3.org/1999/xlink">
<g id="graph0" class="graph" transform="scale(1 1) rotate(0) translate(4 112)">
<title>packages_somename</title>
<polygon fill="white" stroke="transparent" points="-4,4 -4,-112 230,-112 230,4 -4,4"/>
<!-- ParallelTest -->
<g id="node1" class="node">
<title>ParallelTest</title>
<polygon fill="none" stroke="black" points="101,-36 0,-36 0,0 101,0 101,-36"/>
<text text-anchor="middle" x="50.5" y="-14.3" font-family="Times,serif" font-size="14.00">ParallelTest</text>
</g>
<!-- main -->
<g id="node2" class="node">
<title>main</title>
<polygon fill="none" stroke="black" points="199.5,-108 145.5,-108 145.5,-72 199.5,-72 199.5,-108"/>
<text text-anchor="middle" x="172.5" y="-86.3" font-family="Times,serif" font-size="14.00">main</text>
</g>
<!-- somemodule -->
<g id="node3" class="node">
<title>somemodule</title>
<polygon fill="none" stroke="black" points="226,-36 119,-36 119,0 226,0 226,-36"/>
<text text-anchor="middle" x="172.5" y="-14.3" font-family="Times,serif" font-size="14.00">somemodule</text>
</g>
<!-- somemodule&#45;&gt;main -->
<g id="edge1" class="edge">
<title>somemodule&#45;&gt;main</title>
<path fill="none" stroke="black" d="M172.5,-36.3C172.5,-44.02 172.5,-53.29 172.5,-61.89"/>
<polygon fill="black" stroke="black" points="172.5,-71.9 168,-61.9 172.5,-66.9 172.5,-61.9 172.5,-61.9 172.5,-61.9 172.5,-66.9 177,-61.9 172.5,-71.9 172.5,-71.9"/>
</g>
</g>
</svg>
