<?xml version="1.0" encoding="UTF-8" standalone="no"?>
<!DOCTYPE svg PUBLIC "-//W3C//DTD SVG 1.1//EN"
 "http://www.w3.org/Graphics/SVG/1.1/DTD/svg11.dtd">
<!-- Generated by graphviz version 2.43.0 (0)
 -->
<!-- Title: classes_project Pages: 1 -->
<svg width="687pt" height="440pt"
 viewBox="0.00 0.00 687.00 439.80" xmlns="http://www.w3.org/2000/svg" xmlns:xlink="http://www.w3.org/1999/xlink">
<g id="graph0" class="graph" transform="scale(1 1) rotate(0) translate(4 435.8)">
<title>classes_project</title>
<polygon fill="white" stroke="transparent" points="-4,4 -4,-435.8 683,-435.8 683,4 -4,4"/>
<!-- Some_Folder.module1.TestClass1 -->
<g id="node1" class="node">
<title>Some_Folder.module1.TestClass1</title>
<polygon fill="none" stroke="black" points="0,-0.5 0,-86.3 255,-86.3 255,-0.5 0,-0.5"/>
<text text-anchor="start" x="8" y="-71.1" font-family="Times,serif" font-size="14.00">Some_Folder.module1.TestClass1</text>
<polyline fill="none" stroke="black" points="0,-63.3 255,-63.3 "/>
<polyline fill="none" stroke="black" points="0,-38.5 255,-38.5 "/>
<text text-anchor="start" x="47.5" y="-23.3" font-family="Times,serif" font-size="14.00">method_X(X: str): dict</text>
<text text-anchor="start" x="47.5" y="-8.3" font-family="Times,serif" font-size="14.00">method_Y(Y: list): float</text>
</g>
<!-- module3.TestClass3 -->
<g id="node4" class="node">
<title>module3.TestClass3</title>
<polygon fill="none" stroke="black" points="166,-138.3 166,-237.3 363,-237.3 363,-138.3 166,-138.3"/>
<text text-anchor="start" x="192.5" y="-222.1" font-family="Times,serif" font-size="14.00">module3.TestClass3</text>
<polyline fill="none" stroke="black" points="166,-214.3 363,-214.3 "/>
<text text-anchor="start" x="178.5" y="-199.1" font-family="Times,serif" font-size="14.00">test_class_1 : NoneType</text>
<text text-anchor="start" x="178.5" y="-184.1" font-family="Times,serif" font-size="14.00">test_class_2 : NoneType</text>
<polyline fill="none" stroke="black" points="166,-176.3 363,-176.3 "/>
<text text-anchor="start" x="174" y="-161.1" font-family="Times,serif" font-size="14.00">interact_with_module_1()</text>
<text text-anchor="start" x="174" y="-146.1" font-family="Times,serif" font-size="14.00">interact_with_module_2()</text>
</g>
<!-- Some_Folder.module1.TestClass1&#45;&gt;module3.TestClass3 -->
<g id="edge1" class="edge">
<title>Some_Folder.module1.TestClass1&#45;&gt;module3.TestClass3</title>
<path fill="none" stroke="black" d="M167.86,-86.35C180.81,-99.81 195.37,-114.94 209.19,-129.31"/>
<polygon fill="black" stroke="black" points="209.36,-129.48 216.4,-131.03 217.68,-138.13 210.63,-136.58 209.36,-129.48"/>
<text text-anchor="middle" x="239.5" y="-108.6" font-family="Times,serif" font-size="14.00" fill="green">test_class_1</text>
</g>
<!-- Some_Folder.module2.TestClass2 -->
<g id="node2" class="node">
<title>Some_Folder.module2.TestClass2</title>
<polygon fill="none" stroke="black" points="273,-8 273,-78.8 528,-78.8 528,-8 273,-8"/>
<text text-anchor="start" x="281" y="-63.6" font-family="Times,serif" font-size="14.00">Some_Folder.module2.TestClass2</text>
<polyline fill="none" stroke="black" points="273,-55.8 528,-55.8 "/>
<polyline fill="none" stroke="black" points="273,-31 528,-31 "/>
<text text-anchor="start" x="398" y="-15.8" font-family="Times,serif" font-size="14.00"> </text>
</g>
<!-- Some_Folder.module2.TestClass2&#45;&gt;module3.TestClass3 -->
<g id="edge2" class="edge">
<title>Some_Folder.module2.TestClass2&#45;&gt;module3.TestClass3</title>
<path fill="none" stroke="black" d="M367.58,-78.87C353.12,-94.01 335.74,-112.2 319.42,-129.3"/>
<polygon fill="black" stroke="black" points="319.28,-129.44 318.03,-136.54 310.99,-138.12 312.25,-131.02 319.28,-129.44"/>
<text text-anchor="middle" x="384.5" y="-108.6" font-family="Times,serif" font-size="14.00" fill="green">test_class_2</text>
</g>
<!-- main.TestClass -->
<g id="node3" class="node">
<title>main.TestClass</title>
<polygon fill="none" stroke="black" points="198,-289.3 198,-431.3 331,-431.3 331,-289.3 198,-289.3"/>
<text text-anchor="start" x="210" y="-416.1" font-family="Times,serif" font-size="14.00">main.TestClass</text>
<polyline fill="none" stroke="black" points="198,-408.3 331,-408.3 "/>
<text text-anchor="start" x="206" y="-393.1" font-family="Times,serif" font-size="14.00">c</text>
<text text-anchor="start" x="206" y="-378.1" font-family="Times,serif" font-size="14.00">d</text>
<text text-anchor="start" x="206" y="-363.1" font-family="Times,serif" font-size="14.00">my_module</text>
<text text-anchor="start" x="206" y="-348.1" font-family="Times,serif" font-size="14.00">number_a : int</text>
<text text-anchor="start" x="206" y="-333.1" font-family="Times,serif" font-size="14.00">number_b : float</text>
<polyline fill="none" stroke="black" points="198,-325.3 331,-325.3 "/>
<text text-anchor="start" x="224" y="-311.1" font-family="Times,serif" font-style="italic" font-size="14.00">method_1</text>
<text text-anchor="start" x="294" y="-311.1" font-family="Times,serif" font-size="14.00">()</text>
<text text-anchor="start" x="224" y="-297.1" font-family="Times,serif" font-style="italic" font-size="14.00">method_2</text>
<text text-anchor="start" x="294" y="-297.1" font-family="Times,serif" font-size="14.00">()</text>
</g>
<!-- module3.TestClass3&#45;&gt;main.TestClass -->
<g id="edge3" class="edge">
<title>module3.TestClass3&#45;&gt;main.TestClass</title>
<path fill="none" stroke="black" d="M264.5,-237.66C264.5,-249.94 264.5,-263.46 264.5,-276.89"/>
<polygon fill="black" stroke="black" points="264.5,-277.15 268.5,-283.15 264.5,-289.15 260.5,-283.15 264.5,-277.15"/>
<text text-anchor="middle" x="305.5" y="-259.6" font-family="Times,serif" font-size="14.00" fill="green">my_module</text>
</g>
<!-- module4.Car -->
<g id="node5" class="node">
<title>module4.Car</title>
<polygon fill="none" stroke="black" points="558.5,-145.8 558.5,-229.8 666.5,-229.8 666.5,-145.8 558.5,-145.8"/>
<text text-anchor="start" x="566.5" y="-214.6" font-family="Times,serif" font-size="14.00">module4.Car</text>
<polyline fill="none" stroke="black" points="558.5,-206.8 666.5,-206.8 "/>
<text text-anchor="start" x="588" y="-191.6" font-family="Times,serif" font-size="14.00">engine</text>
<polyline fill="none" stroke="black" points="558.5,-183.8 666.5,-183.8 "/>
<text text-anchor="start" x="589.5" y="-168.6" font-family="Times,serif" font-size="14.00">start()</text>
<text text-anchor="start" x="589.5" y="-153.6" font-family="Times,serif" font-size="14.00">stop()</text>
</g>
<!-- module4.Engine -->
<g id="node6" class="node">
<title>module4.Engine</title>
<polygon fill="none" stroke="black" points="546,-0.5 546,-86.3 679,-86.3 679,-0.5 546,-0.5"/>
<text text-anchor="start" x="554" y="-71.1" font-family="Times,serif" font-size="14.00">module4.Engine</text>
<polyline fill="none" stroke="black" points="546,-63.3 679,-63.3 "/>
<polyline fill="none" stroke="black" points="546,-38.5 679,-38.5 "/>
<text text-anchor="start" x="589.5" y="-23.3" font-family="Times,serif" font-size="14.00">start()</text>
<text text-anchor="start" x="589.5" y="-8.3" font-family="Times,serif" font-size="14.00">stop()</text>
</g>
<!-- module4.Engine&#45;&gt;module4.Car -->
<g id="edge4" class="edge">
<title>module4.Engine&#45;&gt;module4.Car</title>
<path fill="none" stroke="black" d="M612.5,-86.35C612.5,-101.11 612.5,-117.9 612.5,-133.47"/>
<polygon fill="black" stroke="black" points="612.5,-133.64 616.5,-139.64 612.5,-145.64 608.5,-139.64 612.5,-133.64"/>
<text text-anchor="middle" x="637" y="-108.6" font-family="Times,serif" font-size="14.00" fill="green">engine</text>
</g>
</g>
</svg>
