<?xml version="1.0" encoding="UTF-8" standalone="no"?>
<!DOCTYPE svg PUBLIC "-//W3C//DTD SVG 1.1//EN"
 "http://www.w3.org/Graphics/SVG/1.1/DTD/svg11.dtd">
<!-- Generated by graphviz version 2.43.0 (0)
 -->
<!-- Title: G Pages: 1 -->
<svg width="566pt" height="696pt"
 viewBox="0.00 0.00 566.00 695.50" xmlns="http://www.w3.org/2000/svg" xmlns:xlink="http://www.w3.org/1999/xlink">
<g id="graph0" class="graph" transform="scale(1 1) rotate(0) translate(4 691.5)">
<title>G</title>
<polygon fill="white" stroke="transparent" points="-4,4 -4,-691.5 562,-691.5 562,4 -4,4"/>
<g id="clust2" class="cluster">
<title>cluster_d0648d9e</title>
<polygon fill="none" stroke="black" stroke-dasharray="1,5" points="106,-115.5 106,-244.5 489,-244.5 489,-115.5 106,-115.5"/>
<text text-anchor="middle" x="297.5" y="-229.3" font-family="Times,serif" font-size="14.00">File: ParallelTest</text>
</g>
<g id="clust3" class="cluster">
<title>cluster_a039e61e</title>
<polygon fill="none" stroke="black" stroke-dasharray="1,5" points="106,-482.5 106,-679.5 536,-679.5 536,-482.5 106,-482.5"/>
<text text-anchor="middle" x="321" y="-664.3" font-family="Times,serif" font-size="14.00">File: main</text>
</g>
<g id="clust4" class="cluster">
<title>cluster_58bbb337</title>
<polygon fill="none" stroke="black" stroke-dasharray="1,5" points="369,-573.5 369,-648.5 528,-648.5 528,-573.5 369,-573.5"/>
<text text-anchor="middle" x="448.5" y="-633.3" font-family="Times,serif" font-size="14.00">Class: TestClass</text>
</g>
<g id="clust5" class="cluster">
<title>cluster_f0aecb0c</title>
<polygon fill="none" stroke="black" stroke-dasharray="1,5" points="392,-490.5 392,-565.5 506,-565.5 506,-490.5 392,-490.5"/>
<text text-anchor="middle" x="449" y="-550.3" font-family="Times,serif" font-size="14.00">Class: Output</text>
</g>
<g id="clust6" class="cluster">
<title>cluster_8cb2619d</title>
<polygon fill="none" stroke="black" stroke-dasharray="1,5" points="347,-252.5 347,-474.5 550,-474.5 550,-252.5 347,-252.5"/>
<text text-anchor="middle" x="448.5" y="-459.3" font-family="Times,serif" font-size="14.00">File: somemodule</text>
</g>
<g id="clust7" class="cluster">
<title>cluster_63d0e15d</title>
<polygon fill="none" stroke="black" stroke-dasharray="1,5" points="355,-260.5 355,-443.5 542,-443.5 542,-260.5 355,-260.5"/>
<text text-anchor="middle" x="448.5" y="-428.3" font-family="Times,serif" font-size="14.00">Class: SomeClass</text>
</g>
<!-- Legend -->
<g id="node1" class="node">
<title>Legend</title>
<polygon fill="none" stroke="black" points="1.5,-88.5 1.5,-105.5 326.5,-105.5 326.5,-88.5 1.5,-88.5"/>
<text text-anchor="start" x="98" y="-93.3" font-family="Times,serif" font-size="14.00">Code2flow Legend</text>
<polygon fill="none" stroke="black" points="1.5,-0.5 1.5,-88.5 326.5,-88.5 326.5,-0.5 1.5,-0.5"/>
<polygon fill="none" stroke="black" points="3.5,-65.5 3.5,-86.5 274.5,-86.5 274.5,-65.5 3.5,-65.5"/>
<text text-anchor="start" x="79" y="-72.3" font-family="Times,serif" font-size="14.00">Regular function</text>
<polygon fill="#cccccc" stroke="transparent" points="274.5,-65.5 274.5,-86.5 324.5,-86.5 324.5,-65.5 274.5,-65.5"/>
<polygon fill="none" stroke="black" points="274.5,-65.5 274.5,-86.5 324.5,-86.5 324.5,-65.5 274.5,-65.5"/>
<polygon fill="none" stroke="black" points="3.5,-44.5 3.5,-65.5 274.5,-65.5 274.5,-44.5 3.5,-44.5"/>
<text text-anchor="start" x="17" y="-51.3" font-family="Times,serif" font-size="14.00">Trunk function (nothing calls this)</text>
<polygon fill="#966f33" stroke="transparent" points="274.5,-44.5 274.5,-65.5 324.5,-65.5 324.5,-44.5 274.5,-44.5"/>
<polygon fill="none" stroke="black" points="274.5,-44.5 274.5,-65.5 324.5,-65.5 324.5,-44.5 274.5,-44.5"/>
<polygon fill="none" stroke="black" points="3.5,-23.5 3.5,-44.5 274.5,-44.5 274.5,-23.5 3.5,-23.5"/>
<text text-anchor="start" x="6.5" y="-30.3" font-family="Times,serif" font-size="14.00">Leaf function (this calls nothing else)</text>
<polygon fill="#6db33f" stroke="transparent" points="274.5,-23.5 274.5,-44.5 324.5,-44.5 324.5,-23.5 274.5,-23.5"/>
<polygon fill="none" stroke="black" points="274.5,-23.5 274.5,-44.5 324.5,-44.5 324.5,-23.5 274.5,-23.5"/>
<polygon fill="none" stroke="black" points="3.5,-2.5 3.5,-23.5 274.5,-23.5 274.5,-2.5 3.5,-2.5"/>
<text text-anchor="start" x="92.5" y="-9.3" font-family="Times,serif" font-size="14.00">Function call</text>
<polygon fill="none" stroke="black" points="274.5,-2.5 274.5,-23.5 324.5,-23.5 324.5,-2.5 274.5,-2.5"/>
<text text-anchor="start" x="293" y="-9.3" font-family="Times,serif" font-size="14.00">→</text>
<polygon fill="none" stroke="black" points="2.5,-1.5 2.5,-87.5 325.5,-87.5 325.5,-1.5 2.5,-1.5"/>
<polygon fill="none" stroke="black" points="0,0 0,-107 327,-107 327,0 0,0"/>
</g>
<!-- node_2128daa1 -->
<g id="node2" class="node">
<title>node_2128daa1</title>
<path fill="#966f33" stroke="black" d="M201,-187.5C201,-187.5 126,-187.5 126,-187.5 120,-187.5 114,-181.5 114,-175.5 114,-175.5 114,-163.5 114,-163.5 114,-157.5 120,-151.5 126,-151.5 126,-151.5 201,-151.5 201,-151.5 207,-151.5 213,-157.5 213,-163.5 213,-163.5 213,-175.5 213,-175.5 213,-181.5 207,-187.5 201,-187.5"/>
<text text-anchor="middle" x="163.5" y="-165.8" font-family="Times,serif" font-size="14.00">0: (global)()</text>
</g>
<!-- node_1fa3e286 -->
<g id="node3" class="node">
<title>node_1fa3e286</title>
<path fill="#6db33f" stroke="black" d="M468.5,-159.5C468.5,-159.5 428.5,-159.5 428.5,-159.5 422.5,-159.5 416.5,-153.5 416.5,-147.5 416.5,-147.5 416.5,-135.5 416.5,-135.5 416.5,-129.5 422.5,-123.5 428.5,-123.5 428.5,-123.5 468.5,-123.5 468.5,-123.5 474.5,-123.5 480.5,-129.5 480.5,-135.5 480.5,-135.5 480.5,-147.5 480.5,-147.5 480.5,-153.5 474.5,-159.5 468.5,-159.5"/>
<text text-anchor="middle" x="448.5" y="-137.8" font-family="Times,serif" font-size="14.00">46: A()</text>
</g>
<!-- node_2128daa1&#45;&gt;node_1fa3e286 -->
<g id="edge1" class="edge">
<title>node_2128daa1&#45;&gt;node_1fa3e286</title>
<path fill="none" stroke="#e69f00" stroke-width="2" d="M213.14,-155.5C213.14,-155.5 406.24,-155.5 406.24,-155.5"/>
<polygon fill="#e69f00" stroke="#e69f00" stroke-width="2" points="406.24,-159 416.24,-155.5 406.24,-152 406.24,-159"/>
</g>
<!-- node_eb542aab -->
<g id="node4" class="node">
<title>node_eb542aab</title>
<path fill="#6db33f" stroke="black" d="M469,-213.5C469,-213.5 428,-213.5 428,-213.5 422,-213.5 416,-207.5 416,-201.5 416,-201.5 416,-189.5 416,-189.5 416,-183.5 422,-177.5 428,-177.5 428,-177.5 469,-177.5 469,-177.5 475,-177.5 481,-183.5 481,-189.5 481,-189.5 481,-201.5 481,-201.5 481,-207.5 475,-213.5 469,-213.5"/>
<text text-anchor="middle" x="448.5" y="-191.8" font-family="Times,serif" font-size="14.00">49: B()</text>
</g>
<!-- node_2128daa1&#45;&gt;node_eb542aab -->
<g id="edge2" class="edge">
<title>node_2128daa1&#45;&gt;node_eb542aab</title>
<path fill="none" stroke="#e69f00" stroke-width="2" d="M213.14,-182.5C213.14,-182.5 405.83,-182.5 405.83,-182.5"/>
<polygon fill="#e69f00" stroke="#e69f00" stroke-width="2" points="405.83,-186 415.83,-182.5 405.83,-179 405.83,-186"/>
</g>
<!-- node_d0d080bb -->
<g id="node5" class="node">
<title>node_d0d080bb</title>
<path fill="#966f33" stroke="black" d="M201,-534.5C201,-534.5 126,-534.5 126,-534.5 120,-534.5 114,-528.5 114,-522.5 114,-522.5 114,-510.5 114,-510.5 114,-504.5 120,-498.5 126,-498.5 126,-498.5 201,-498.5 201,-498.5 207,-498.5 213,-504.5 213,-510.5 213,-510.5 213,-522.5 213,-522.5 213,-528.5 207,-534.5 201,-534.5"/>
<text text-anchor="middle" x="163.5" y="-512.8" font-family="Times,serif" font-size="14.00">0: (global)()</text>
</g>
<!-- node_fe2f8fd0 -->
<g id="node6" class="node">
<title>node_fe2f8fd0</title>
<path fill="#6db33f" stroke="black" d="M481,-534.5C481,-534.5 416,-534.5 416,-534.5 410,-534.5 404,-528.5 404,-522.5 404,-522.5 404,-510.5 404,-510.5 404,-504.5 410,-498.5 416,-498.5 416,-498.5 481,-498.5 481,-498.5 487,-498.5 493,-504.5 493,-510.5 493,-510.5 493,-522.5 493,-522.5 493,-528.5 487,-534.5 481,-534.5"/>
<text text-anchor="middle" x="448.5" y="-512.8" font-family="Times,serif" font-size="14.00">67: print()</text>
</g>
<!-- node_d0d080bb&#45;&gt;node_fe2f8fd0 -->
<g id="edge3" class="edge">
<title>node_d0d080bb&#45;&gt;node_fe2f8fd0</title>
<path fill="none" stroke="#009e73" stroke-width="2" d="M213.14,-520.1C213.14,-520.1 393.65,-520.1 393.65,-520.1"/>
<polygon fill="#009e73" stroke="#009e73" stroke-width="2" points="393.65,-523.6 403.65,-520.1 393.65,-516.6 393.65,-523.6"/>
</g>
<!-- node_036c80f0 -->
<g id="node7" class="node">
<title>node_036c80f0</title>
<path fill="#6db33f" stroke="black" d="M508,-617.5C508,-617.5 389,-617.5 389,-617.5 383,-617.5 377,-611.5 377,-605.5 377,-605.5 377,-593.5 377,-593.5 377,-587.5 383,-581.5 389,-581.5 389,-581.5 508,-581.5 508,-581.5 514,-581.5 520,-587.5 520,-593.5 520,-593.5 520,-605.5 520,-605.5 520,-611.5 514,-617.5 508,-617.5"/>
<text text-anchor="middle" x="448.5" y="-595.8" font-family="Times,serif" font-size="14.00">31: test_method()</text>
</g>
<!-- node_d0d080bb&#45;&gt;node_036c80f0 -->
<g id="edge8" class="edge">
<title>node_d0d080bb&#45;&gt;node_036c80f0</title>
<path fill="none" stroke="#009e73" stroke-width="2" d="M213.03,-527.3C277.77,-527.3 383,-527.3 383,-527.3 383,-527.3 383,-571.28 383,-571.28"/>
<polygon fill="#009e73" stroke="#009e73" stroke-width="2" points="379.5,-571.28 383,-581.28 386.5,-571.28 379.5,-571.28"/>
</g>
<!-- node_9a85621d -->
<g id="node8" class="node">
<title>node_9a85621d</title>
<path fill="#cccccc" stroke="black" d="M497,-412.5C497,-412.5 400,-412.5 400,-412.5 394,-412.5 388,-406.5 388,-400.5 388,-400.5 388,-388.5 388,-388.5 388,-382.5 394,-376.5 400,-376.5 400,-376.5 497,-376.5 497,-376.5 503,-376.5 509,-382.5 509,-388.5 509,-388.5 509,-400.5 509,-400.5 509,-406.5 503,-412.5 497,-412.5"/>
<text text-anchor="middle" x="448.5" y="-390.8" font-family="Times,serif" font-size="14.00">32: call_main()</text>
</g>
<!-- node_d0d080bb&#45;&gt;node_9a85621d -->
<g id="edge9" class="edge">
<title>node_d0d080bb&#45;&gt;node_9a85621d</title>
<path fill="none" stroke="#009e73" stroke-width="2" d="M213.09,-512.9C281.37,-512.9 396,-512.9 396,-512.9 396,-512.9 396,-422.74 396,-422.74"/>
<polygon fill="#009e73" stroke="#009e73" stroke-width="2" points="399.5,-422.74 396,-412.74 392.5,-422.74 399.5,-422.74"/>
</g>
<!-- node_92641784 -->
<g id="node9" class="node">
<title>node_92641784</title>
<path fill="#6db33f" stroke="black" d="M491,-358.5C491,-358.5 406,-358.5 406,-358.5 400,-358.5 394,-352.5 394,-346.5 394,-346.5 394,-334.5 394,-334.5 394,-328.5 400,-322.5 406,-322.5 406,-322.5 491,-322.5 491,-322.5 497,-322.5 503,-328.5 503,-334.5 503,-334.5 503,-346.5 503,-346.5 503,-352.5 497,-358.5 491,-358.5"/>
<text text-anchor="middle" x="448.5" y="-336.8" font-family="Times,serif" font-size="14.00">28: iterator()</text>
</g>
<!-- node_d0d080bb&#45;&gt;node_92641784 -->
<g id="edge10" class="edge">
<title>node_d0d080bb&#45;&gt;node_92641784</title>
<path fill="none" stroke="#009e73" stroke-width="2" d="M164,-498.33C164,-453.36 164,-340.5 164,-340.5 164,-340.5 383.98,-340.5 383.98,-340.5"/>
<polygon fill="#009e73" stroke="#009e73" stroke-width="2" points="383.98,-344 393.98,-340.5 383.98,-337 383.98,-344"/>
</g>
<!-- node_daacd2dc -->
<g id="node10" class="node">
<title>node_daacd2dc</title>
<path fill="#6db33f" stroke="black" d="M522,-304.5C522,-304.5 375,-304.5 375,-304.5 369,-304.5 363,-298.5 363,-292.5 363,-292.5 363,-280.5 363,-280.5 363,-274.5 369,-268.5 375,-268.5 375,-268.5 522,-268.5 522,-268.5 528,-268.5 534,-274.5 534,-280.5 534,-280.5 534,-292.5 534,-292.5 534,-298.5 528,-304.5 522,-304.5"/>
<text text-anchor="middle" x="448.5" y="-282.8" font-family="Times,serif" font-size="14.00">20: print_something()</text>
</g>
<!-- node_d0d080bb&#45;&gt;node_daacd2dc -->
<g id="edge11" class="edge">
<title>node_d0d080bb&#45;&gt;node_daacd2dc</title>
<path fill="none" stroke="#009e73" stroke-width="2" d="M213.22,-505.7C274.33,-505.7 370,-505.7 370,-505.7 370,-505.7 370,-314.81 370,-314.81"/>
<polygon fill="#009e73" stroke="#009e73" stroke-width="2" points="373.5,-314.81 370,-304.81 366.5,-314.81 373.5,-314.81"/>
</g>
<!-- node_9a85621d&#45;&gt;node_fe2f8fd0 -->
<g id="edge12" class="edge">
<title>node_9a85621d&#45;&gt;node_fe2f8fd0</title>
<path fill="none" stroke="#0072b2" stroke-width="2" d="M449,-412.5C449,-412.5 449,-488.42 449,-488.42"/>
<polygon fill="#0072b2" stroke="#0072b2" stroke-width="2" points="445.5,-488.42 449,-498.42 452.5,-488.42 445.5,-488.42"/>
</g>
</g>
</svg>
