<?xml version="1.0" encoding="UTF-8" standalone="no"?>
<!DOCTYPE svg PUBLIC "-//W3C//DTD SVG 1.1//EN"
 "http://www.w3.org/Graphics/SVG/1.1/DTD/svg11.dtd">
<!-- Generated by graphviz version 2.43.0 (0)
 -->
<!-- Title: H Pages: 1 -->
<svg width="92pt" height="188pt"
 viewBox="0.00 0.00 92.49 188.00" xmlns="http://www.w3.org/2000/svg" xmlns:xlink="http://www.w3.org/1999/xlink">
<g id="graph0" class="graph" transform="scale(1 1) rotate(0) translate(4 184)">
<title>H</title>
<polygon fill="white" stroke="transparent" points="-4,4 -4,-184 88.49,-184 88.49,4 -4,4"/>
<!-- Step A -->
<g id="node1" class="node">
<title>Step A</title>
<ellipse fill="none" stroke="black" cx="42.25" cy="-162" rx="41.69" ry="18"/>
<text text-anchor="middle" x="42.25" y="-158.3" font-family="Times,serif" font-size="14.00">Step A</text>
</g>
<!-- Step B -->
<g id="node2" class="node">
<title>Step B</title>
<ellipse fill="none" stroke="black" cx="42.25" cy="-90" rx="42.49" ry="18"/>
<text text-anchor="middle" x="42.25" y="-86.3" font-family="Times,serif" font-size="14.00">Step B</text>
</g>
<!-- Step A&#45;&gt;Step B -->
<g id="edge1" class="edge">
<title>Step A&#45;&gt;Step B</title>
<path fill="none" stroke="black" d="M36.37,-144.05C35.55,-136.35 35.31,-127.03 35.64,-118.36"/>
<polygon fill="black" stroke="black" points="39.14,-118.49 36.33,-108.28 32.16,-118.01 39.14,-118.49"/>
</g>
<!-- Step B&#45;&gt;Step A -->
<g id="edge3" class="edge">
<title>Step B&#45;&gt;Step A</title>
<path fill="none" stroke="black" d="M48.16,-108.28C48.96,-116.03 49.19,-125.36 48.84,-134.01"/>
<polygon fill="black" stroke="black" points="45.34,-133.83 48.12,-144.05 52.32,-134.33 45.34,-133.83"/>
</g>
<!-- Step C -->
<g id="node3" class="node">
<title>Step C</title>
<ellipse fill="none" stroke="black" cx="42.25" cy="-18" rx="42.49" ry="18"/>
<text text-anchor="middle" x="42.25" y="-14.3" font-family="Times,serif" font-size="14.00">Step C</text>
</g>
<!-- Step B&#45;&gt;Step C -->
<g id="edge2" class="edge">
<title>Step B&#45;&gt;Step C</title>
<path fill="none" stroke="black" d="M42.25,-71.7C42.25,-63.98 42.25,-54.71 42.25,-46.11"/>
<polygon fill="black" stroke="black" points="45.75,-46.1 42.25,-36.1 38.75,-46.1 45.75,-46.1"/>
</g>
</g>
</svg>
