<?xml version="1.0" encoding="UTF-8" standalone="no"?>
<!DOCTYPE svg PUBLIC "-//W3C//DTD SVG 1.1//EN"
 "http://www.w3.org/Graphics/SVG/1.1/DTD/svg11.dtd">
<!-- Generated by graphviz version 2.43.0 (0)
 -->
<!-- Title: packages_project Pages: 1 -->
<svg width="372pt" height="188pt"
 viewBox="0.00 0.00 372.00 188.00" xmlns="http://www.w3.org/2000/svg" xmlns:xlink="http://www.w3.org/1999/xlink">
<g id="graph0" class="graph" transform="scale(1 1) rotate(0) translate(4 184)">
<title>packages_project</title>
<polygon fill="white" stroke="transparent" points="-4,4 -4,-184 368,-184 368,4 -4,4"/>
<!-- Some_Folder.module1 -->
<g id="node1" class="node">
<title>Some_Folder.module1</title>
<polygon fill="none" stroke="black" points="173,-180 0,-180 0,-144 173,-144 173,-180"/>
<text text-anchor="middle" x="86.5" y="-158.3" font-family="Times,serif" font-size="14.00">Some_Folder.module1</text>
</g>
<!-- Some_Folder.module2 -->
<g id="node2" class="node">
<title>Some_Folder.module2</title>
<polygon fill="none" stroke="black" points="364,-180 191,-180 191,-144 364,-144 364,-180"/>
<text text-anchor="middle" x="277.5" y="-158.3" font-family="Times,serif" font-size="14.00">Some_Folder.module2</text>
</g>
<!-- main -->
<g id="node3" class="node">
<title>main</title>
<polygon fill="none" stroke="black" points="208.5,-36 154.5,-36 154.5,0 208.5,0 208.5,-36"/>
<text text-anchor="middle" x="181.5" y="-14.3" font-family="Times,serif" font-size="14.00">main</text>
</g>
<!-- module3 -->
<g id="node4" class="node">
<title>module3</title>
<polygon fill="none" stroke="black" points="220.5,-108 142.5,-108 142.5,-72 220.5,-72 220.5,-108"/>
<text text-anchor="middle" x="181.5" y="-86.3" font-family="Times,serif" font-size="14.00">module3</text>
</g>
<!-- main&#45;&gt;module3 -->
<g id="edge1" class="edge">
<title>main&#45;&gt;module3</title>
<path fill="none" stroke="black" d="M181.5,-36.3C181.5,-44.02 181.5,-53.29 181.5,-61.89"/>
<polygon fill="black" stroke="black" points="181.5,-71.9 177,-61.9 181.5,-66.9 181.5,-61.9 181.5,-61.9 181.5,-61.9 181.5,-66.9 186,-61.9 181.5,-71.9 181.5,-71.9"/>
</g>
<!-- module3&#45;&gt;Some_Folder.module1 -->
<g id="edge2" class="edge">
<title>module3&#45;&gt;Some_Folder.module1</title>
<path fill="none" stroke="black" d="M158.02,-108.3C145.94,-117.2 131.05,-128.18 117.98,-137.8"/>
<polygon fill="black" stroke="black" points="109.71,-143.9 115.09,-134.34 113.74,-140.93 117.76,-137.96 117.76,-137.96 117.76,-137.96 113.74,-140.93 120.43,-141.59 109.71,-143.9 109.71,-143.9"/>
</g>
<!-- module3&#45;&gt;Some_Folder.module2 -->
<g id="edge3" class="edge">
<title>module3&#45;&gt;Some_Folder.module2</title>
<path fill="none" stroke="black" d="M205.23,-108.3C217.44,-117.2 232.49,-128.18 245.68,-137.8"/>
<polygon fill="black" stroke="black" points="254.04,-143.9 243.31,-141.64 250,-140.95 245.96,-138 245.96,-138 245.96,-138 250,-140.95 248.61,-134.37 254.04,-143.9 254.04,-143.9"/>
</g>
<!-- module4 -->
<g id="node5" class="node">
<title>module4</title>
<polygon fill="none" stroke="black" points="304.5,-36 226.5,-36 226.5,0 304.5,0 304.5,-36"/>
<text text-anchor="middle" x="265.5" y="-14.3" font-family="Times,serif" font-size="14.00">module4</text>
</g>
</g>
</svg>
