<?xml version="1.0" encoding="UTF-8" standalone="no"?><svg xmlns="http://www.w3.org/2000/svg" xmlns:xlink="http://www.w3.org/1999/xlink" contentScriptType="application/ecmascript" contentStyleType="text/css" height="482px" preserveAspectRatio="none" style="width:728px;height:482px;" version="1.1" viewBox="0 0 728 482" width="728px" zoomAndPan="magnify"><defs><filter height="300%" id="f8fo0bak7urrq" width="300%" x="-1" y="-1"><feGaussianBlur result="blurOut" stdDeviation="2.0"/><feColorMatrix in="blurOut" result="blurOut2" type="matrix" values="0 0 0 0 0 0 0 0 0 0 0 0 0 0 0 0 0 0 .4 0"/><feOffset dx="4.0" dy="4.0" in="blurOut2" result="blurOut3"/><feBlend in="SourceGraphic" in2="blurOut3" mode="normal"/></filter></defs><g><!--MD5=[db8947410cfcb5febdf8f8cf27669db4]
class Class1--><rect fill="#FEFECE" filter="url(#f8fo0bak7urrq)" height="201.6563" id="Class1" style="stroke: #A80036; stroke-width: 1.5;" width="210" x="8.5" y="8"/><ellipse cx="88.75" cy="24" fill="#ADD1B2" rx="11" ry="11" style="stroke: #A80036; stroke-width: 1.0;"/><path d="M91.7188,29.6406 Q91.1406,29.9375 90.5,30.0781 Q89.8594,30.2344 89.1563,30.2344 Q86.6563,30.2344 85.3281,28.5938 Q84.0156,26.9375 84.0156,23.8125 Q84.0156,20.6875 85.3281,19.0313 Q86.6563,17.375 89.1563,17.375 Q89.8594,17.375 90.5,17.5313 Q91.1563,17.6875 91.7188,17.9844 L91.7188,20.7031 Q91.0938,20.125 90.5,19.8594 Q89.9063,19.5781 89.2813,19.5781 Q87.9375,19.5781 87.25,20.6563 Q86.5625,21.7188 86.5625,23.8125 Q86.5625,25.9063 87.25,26.9844 Q87.9375,28.0469 89.2813,28.0469 Q89.9063,28.0469 90.5,27.7813 Q91.0938,27.5 91.7188,26.9219 L91.7188,29.6406 Z "/><text fill="#000000" font-family="sans-serif" font-size="12" lengthAdjust="spacingAndGlyphs" textLength="41" x="109.25" y="28.1543">Class1</text><line style="stroke: #A80036; stroke-width: 1.5;" x1="9.5" x2="217.5" y1="40" y2="40"/><rect fill="none" height="6" style="stroke: #C82930; stroke-width: 1.0;" width="6" x="16.5" y="48"/><text fill="#000000" font-family="sans-serif" font-size="11" lengthAdjust="spacingAndGlyphs" textLength="80" x="28.5" y="54.2104">privateVar: int</text><polygon fill="none" points="19.5,58.8047,23.5,62.8047,19.5,66.8047,15.5,62.8047" style="stroke: #B38D22; stroke-width: 1.0;"/><text fill="#000000" font-family="sans-serif" font-size="11" lengthAdjust="spacingAndGlyphs" textLength="97" x="28.5" y="67.0151">protectedVar: str</text><ellipse cx="19.5" cy="76.6094" fill="none" rx="3" ry="3" style="stroke: #038048; stroke-width: 1.0;"/><text fill="#000000" font-family="sans-serif" font-size="11" lengthAdjust="spacingAndGlyphs" textLength="84" x="28.5" y="79.8198">publicVar: bool</text><line style="stroke: #A80036; stroke-width: 1.5;" x1="9.5" x2="217.5" y1="86.4141" y2="86.4141"/><ellipse cx="19.5" cy="97.4141" fill="#84BE84" rx="3" ry="3" style="stroke: #038048; stroke-width: 1.0;"/><text fill="#000000" font-family="sans-serif" font-size="11" lengthAdjust="spacingAndGlyphs" textLength="106" x="28.5" y="100.6245">getPrivateVar(): int</text><ellipse cx="19.5" cy="110.2188" fill="#84BE84" rx="3" ry="3" style="stroke: #038048; stroke-width: 1.0;"/><text fill="#000000" font-family="sans-serif" font-size="11" lengthAdjust="spacingAndGlyphs" textLength="167" x="28.5" y="113.4292">setPrivateVar(value: int): void</text><ellipse cx="19.5" cy="123.0234" fill="#84BE84" rx="3" ry="3" style="stroke: #038048; stroke-width: 1.0;"/><text fill="#000000" font-family="sans-serif" font-size="11" lengthAdjust="spacingAndGlyphs" textLength="123" x="28.5" y="126.2339">getProtectedVar(): str</text><ellipse cx="19.5" cy="135.8281" fill="#84BE84" rx="3" ry="3" style="stroke: #038048; stroke-width: 1.0;"/><text fill="#000000" font-family="sans-serif" font-size="11" lengthAdjust="spacingAndGlyphs" textLength="184" x="28.5" y="139.0386">setProtectedVar(value: str): void</text><ellipse cx="19.5" cy="148.6328" fill="#84BE84" rx="3" ry="3" style="stroke: #038048; stroke-width: 1.0;"/><text fill="#000000" font-family="sans-serif" font-size="11" lengthAdjust="spacingAndGlyphs" textLength="110" x="28.5" y="151.8433">getPublicVar(): bool</text><ellipse cx="19.5" cy="161.4375" fill="#84BE84" rx="3" ry="3" style="stroke: #038048; stroke-width: 1.0;"/><text fill="#000000" font-family="sans-serif" font-size="11" lengthAdjust="spacingAndGlyphs" textLength="171" x="28.5" y="164.6479">setPublicVar(value: bool): void</text><text fill="#000000" font-family="sans-serif" font-size="11" lengthAdjust="spacingAndGlyphs" textLength="0" x="32.5" y="177.4526"/><ellipse cx="19.5" cy="187.0469" fill="#84BE84" rx="3" ry="3" style="stroke: #038048; stroke-width: 1.0;"/><text fill="#000000" font-family="sans-serif" font-size="11" lengthAdjust="spacingAndGlyphs" textLength="114" x="28.5" y="190.2573">doSomething(): void</text><ellipse cx="19.5" cy="199.8516" fill="#84BE84" rx="3" ry="3" style="stroke: #038048; stroke-width: 1.0;"/><text fill="#000000" font-family="sans-serif" font-size="11" lengthAdjust="spacingAndGlyphs" textLength="175" x="28.5" y="203.062">calculateValue(x: int, y: int): int</text><!--MD5=[097cec2c4502543b4bc821e1e2f7ea8d]
class Class2--><rect fill="#FEFECE" filter="url(#f8fo0bak7urrq)" height="201.6563" id="Class2" style="stroke: #A80036; stroke-width: 1.5;" width="215" x="254" y="8"/><ellipse cx="336.75" cy="24" fill="#ADD1B2" rx="11" ry="11" style="stroke: #A80036; stroke-width: 1.0;"/><path d="M339.7188,29.6406 Q339.1406,29.9375 338.5,30.0781 Q337.8594,30.2344 337.1563,30.2344 Q334.6563,30.2344 333.3281,28.5938 Q332.0156,26.9375 332.0156,23.8125 Q332.0156,20.6875 333.3281,19.0313 Q334.6563,17.375 337.1563,17.375 Q337.8594,17.375 338.5,17.5313 Q339.1563,17.6875 339.7188,17.9844 L339.7188,20.7031 Q339.0938,20.125 338.5,19.8594 Q337.9063,19.5781 337.2813,19.5781 Q335.9375,19.5781 335.25,20.6563 Q334.5625,21.7188 334.5625,23.8125 Q334.5625,25.9063 335.25,26.9844 Q335.9375,28.0469 337.2813,28.0469 Q337.9063,28.0469 338.5,27.7813 Q339.0938,27.5 339.7188,26.9219 L339.7188,29.6406 Z "/><text fill="#000000" font-family="sans-serif" font-size="12" lengthAdjust="spacingAndGlyphs" textLength="41" x="357.25" y="28.1543">Class2</text><line style="stroke: #A80036; stroke-width: 1.5;" x1="255" x2="468" y1="40" y2="40"/><rect fill="none" height="6" style="stroke: #C82930; stroke-width: 1.0;" width="6" x="262" y="48"/><text fill="#000000" font-family="sans-serif" font-size="11" lengthAdjust="spacingAndGlyphs" textLength="89" x="274" y="54.2104">privateVar2: str</text><polygon fill="none" points="265,58.8047,269,62.8047,265,66.8047,261,62.8047" style="stroke: #B38D22; stroke-width: 1.0;"/><text fill="#000000" font-family="sans-serif" font-size="11" lengthAdjust="spacingAndGlyphs" textLength="102" x="274" y="67.0151">protectedVar2: int</text><ellipse cx="265" cy="76.6094" fill="none" rx="3" ry="3" style="stroke: #038048; stroke-width: 1.0;"/><text fill="#000000" font-family="sans-serif" font-size="11" lengthAdjust="spacingAndGlyphs" textLength="92" x="274" y="79.8198">publicVar2: float</text><line style="stroke: #A80036; stroke-width: 1.5;" x1="255" x2="468" y1="86.4141" y2="86.4141"/><ellipse cx="265" cy="97.4141" fill="#84BE84" rx="3" ry="3" style="stroke: #038048; stroke-width: 1.0;"/><text fill="#000000" font-family="sans-serif" font-size="11" lengthAdjust="spacingAndGlyphs" textLength="115" x="274" y="100.6245">getPrivateVar2(): str</text><ellipse cx="265" cy="110.2188" fill="#84BE84" rx="3" ry="3" style="stroke: #038048; stroke-width: 1.0;"/><text fill="#000000" font-family="sans-serif" font-size="11" lengthAdjust="spacingAndGlyphs" textLength="176" x="274" y="113.4292">setPrivateVar2(value: str): void</text><ellipse cx="265" cy="123.0234" fill="#84BE84" rx="3" ry="3" style="stroke: #038048; stroke-width: 1.0;"/><text fill="#000000" font-family="sans-serif" font-size="11" lengthAdjust="spacingAndGlyphs" textLength="128" x="274" y="126.2339">getProtectedVar2(): int</text><ellipse cx="265" cy="135.8281" fill="#84BE84" rx="3" ry="3" style="stroke: #038048; stroke-width: 1.0;"/><text fill="#000000" font-family="sans-serif" font-size="11" lengthAdjust="spacingAndGlyphs" textLength="189" x="274" y="139.0386">setProtectedVar2(value: int): void</text><ellipse cx="265" cy="148.6328" fill="#84BE84" rx="3" ry="3" style="stroke: #038048; stroke-width: 1.0;"/><text fill="#000000" font-family="sans-serif" font-size="11" lengthAdjust="spacingAndGlyphs" textLength="118" x="274" y="151.8433">getPublicVar2(): float</text><ellipse cx="265" cy="161.4375" fill="#84BE84" rx="3" ry="3" style="stroke: #038048; stroke-width: 1.0;"/><text fill="#000000" font-family="sans-serif" font-size="11" lengthAdjust="spacingAndGlyphs" textLength="179" x="274" y="164.6479">setPublicVar2(value: float): void</text><text fill="#000000" font-family="sans-serif" font-size="11" lengthAdjust="spacingAndGlyphs" textLength="0" x="278" y="177.4526"/><ellipse cx="265" cy="187.0469" fill="#84BE84" rx="3" ry="3" style="stroke: #038048; stroke-width: 1.0;"/><text fill="#000000" font-family="sans-serif" font-size="11" lengthAdjust="spacingAndGlyphs" textLength="138" x="274" y="190.2573">doSomethingElse(): void</text><ellipse cx="265" cy="199.8516" fill="#84BE84" rx="3" ry="3" style="stroke: #038048; stroke-width: 1.0;"/><text fill="#000000" font-family="sans-serif" font-size="11" lengthAdjust="spacingAndGlyphs" textLength="156" x="274" y="203.062">processData(input: str): str</text><!--MD5=[abf337c455a9c7bb6033e86969bcb5eb]
class Class3--><rect fill="#FEFECE" filter="url(#f8fo0bak7urrq)" height="201.6563" id="Class3" style="stroke: #A80036; stroke-width: 1.5;" width="210" x="504.5" y="8"/><ellipse cx="584.75" cy="24" fill="#ADD1B2" rx="11" ry="11" style="stroke: #A80036; stroke-width: 1.0;"/><path d="M587.7188,29.6406 Q587.1406,29.9375 586.5,30.0781 Q585.8594,30.2344 585.1563,30.2344 Q582.6563,30.2344 581.3281,28.5938 Q580.0156,26.9375 580.0156,23.8125 Q580.0156,20.6875 581.3281,19.0313 Q582.6563,17.375 585.1563,17.375 Q585.8594,17.375 586.5,17.5313 Q587.1563,17.6875 587.7188,17.9844 L587.7188,20.7031 Q587.0938,20.125 586.5,19.8594 Q585.9063,19.5781 585.2813,19.5781 Q583.9375,19.5781 583.25,20.6563 Q582.5625,21.7188 582.5625,23.8125 Q582.5625,25.9063 583.25,26.9844 Q583.9375,28.0469 585.2813,28.0469 Q585.9063,28.0469 586.5,27.7813 Q587.0938,27.5 587.7188,26.9219 L587.7188,29.6406 Z "/><text fill="#000000" font-family="sans-serif" font-size="12" lengthAdjust="spacingAndGlyphs" textLength="41" x="605.25" y="28.1543">Class3</text><line style="stroke: #A80036; stroke-width: 1.5;" x1="505.5" x2="713.5" y1="40" y2="40"/><rect fill="none" height="6" style="stroke: #C82930; stroke-width: 1.0;" width="6" x="512.5" y="48"/><text fill="#000000" font-family="sans-serif" font-size="11" lengthAdjust="spacingAndGlyphs" textLength="80" x="524.5" y="54.2104">privateVar: int</text><polygon fill="none" points="515.5,58.8047,519.5,62.8047,515.5,66.8047,511.5,62.8047" style="stroke: #B38D22; stroke-width: 1.0;"/><text fill="#000000" font-family="sans-serif" font-size="11" lengthAdjust="spacingAndGlyphs" textLength="97" x="524.5" y="67.0151">protectedVar: str</text><ellipse cx="515.5" cy="76.6094" fill="none" rx="3" ry="3" style="stroke: #038048; stroke-width: 1.0;"/><text fill="#000000" font-family="sans-serif" font-size="11" lengthAdjust="spacingAndGlyphs" textLength="84" x="524.5" y="79.8198">publicVar: bool</text><line style="stroke: #A80036; stroke-width: 1.5;" x1="505.5" x2="713.5" y1="86.4141" y2="86.4141"/><ellipse cx="515.5" cy="97.4141" fill="#84BE84" rx="3" ry="3" style="stroke: #038048; stroke-width: 1.0;"/><text fill="#000000" font-family="sans-serif" font-size="11" lengthAdjust="spacingAndGlyphs" textLength="106" x="524.5" y="100.6245">getPrivateVar(): int</text><ellipse cx="515.5" cy="110.2188" fill="#84BE84" rx="3" ry="3" style="stroke: #038048; stroke-width: 1.0;"/><text fill="#000000" font-family="sans-serif" font-size="11" lengthAdjust="spacingAndGlyphs" textLength="167" x="524.5" y="113.4292">setPrivateVar(value: int): void</text><ellipse cx="515.5" cy="123.0234" fill="#84BE84" rx="3" ry="3" style="stroke: #038048; stroke-width: 1.0;"/><text fill="#000000" font-family="sans-serif" font-size="11" lengthAdjust="spacingAndGlyphs" textLength="123" x="524.5" y="126.2339">getProtectedVar(): str</text><ellipse cx="515.5" cy="135.8281" fill="#84BE84" rx="3" ry="3" style="stroke: #038048; stroke-width: 1.0;"/><text fill="#000000" font-family="sans-serif" font-size="11" lengthAdjust="spacingAndGlyphs" textLength="184" x="524.5" y="139.0386">setProtectedVar(value: str): void</text><ellipse cx="515.5" cy="148.6328" fill="#84BE84" rx="3" ry="3" style="stroke: #038048; stroke-width: 1.0;"/><text fill="#000000" font-family="sans-serif" font-size="11" lengthAdjust="spacingAndGlyphs" textLength="110" x="524.5" y="151.8433">getPublicVar(): bool</text><ellipse cx="515.5" cy="161.4375" fill="#84BE84" rx="3" ry="3" style="stroke: #038048; stroke-width: 1.0;"/><text fill="#000000" font-family="sans-serif" font-size="11" lengthAdjust="spacingAndGlyphs" textLength="171" x="524.5" y="164.6479">setPublicVar(value: bool): void</text><text fill="#000000" font-family="sans-serif" font-size="11" lengthAdjust="spacingAndGlyphs" textLength="0" x="528.5" y="177.4526"/><ellipse cx="515.5" cy="187.0469" fill="#84BE84" rx="3" ry="3" style="stroke: #038048; stroke-width: 1.0;"/><text fill="#000000" font-family="sans-serif" font-size="11" lengthAdjust="spacingAndGlyphs" textLength="114" x="524.5" y="190.2573">doSomething(): void</text><ellipse cx="515.5" cy="199.8516" fill="#84BE84" rx="3" ry="3" style="stroke: #038048; stroke-width: 1.0;"/><text fill="#000000" font-family="sans-serif" font-size="11" lengthAdjust="spacingAndGlyphs" textLength="175" x="524.5" y="203.062">calculateValue(x: int, y: int): int</text><!--MD5=[ed88a39d11e1a868d4958d16413c4746]
class Class4--><rect fill="#FEFECE" filter="url(#f8fo0bak7urrq)" height="201.6563" id="Class4" style="stroke: #A80036; stroke-width: 1.5;" width="215" x="6" y="270"/><ellipse cx="88.75" cy="286" fill="#ADD1B2" rx="11" ry="11" style="stroke: #A80036; stroke-width: 1.0;"/><path d="M91.7188,291.6406 Q91.1406,291.9375 90.5,292.0781 Q89.8594,292.2344 89.1563,292.2344 Q86.6563,292.2344 85.3281,290.5938 Q84.0156,288.9375 84.0156,285.8125 Q84.0156,282.6875 85.3281,281.0313 Q86.6563,279.375 89.1563,279.375 Q89.8594,279.375 90.5,279.5313 Q91.1563,279.6875 91.7188,279.9844 L91.7188,282.7031 Q91.0938,282.125 90.5,281.8594 Q89.9063,281.5781 89.2813,281.5781 Q87.9375,281.5781 87.25,282.6563 Q86.5625,283.7188 86.5625,285.8125 Q86.5625,287.9063 87.25,288.9844 Q87.9375,290.0469 89.2813,290.0469 Q89.9063,290.0469 90.5,289.7813 Q91.0938,289.5 91.7188,288.9219 L91.7188,291.6406 Z "/><text fill="#000000" font-family="sans-serif" font-size="12" lengthAdjust="spacingAndGlyphs" textLength="41" x="109.25" y="290.1543">Class4</text><line style="stroke: #A80036; stroke-width: 1.5;" x1="7" x2="220" y1="302" y2="302"/><rect fill="none" height="6" style="stroke: #C82930; stroke-width: 1.0;" width="6" x="14" y="310"/><text fill="#000000" font-family="sans-serif" font-size="11" lengthAdjust="spacingAndGlyphs" textLength="89" x="26" y="316.2104">privateVar2: str</text><polygon fill="none" points="17,320.8047,21,324.8047,17,328.8047,13,324.8047" style="stroke: #B38D22; stroke-width: 1.0;"/><text fill="#000000" font-family="sans-serif" font-size="11" lengthAdjust="spacingAndGlyphs" textLength="102" x="26" y="329.0151">protectedVar2: int</text><ellipse cx="17" cy="338.6094" fill="none" rx="3" ry="3" style="stroke: #038048; stroke-width: 1.0;"/><text fill="#000000" font-family="sans-serif" font-size="11" lengthAdjust="spacingAndGlyphs" textLength="92" x="26" y="341.8198">publicVar2: float</text><line style="stroke: #A80036; stroke-width: 1.5;" x1="7" x2="220" y1="348.4141" y2="348.4141"/><ellipse cx="17" cy="359.4141" fill="#84BE84" rx="3" ry="3" style="stroke: #038048; stroke-width: 1.0;"/><text fill="#000000" font-family="sans-serif" font-size="11" lengthAdjust="spacingAndGlyphs" textLength="115" x="26" y="362.6245">getPrivateVar2(): str</text><ellipse cx="17" cy="372.2188" fill="#84BE84" rx="3" ry="3" style="stroke: #038048; stroke-width: 1.0;"/><text fill="#000000" font-family="sans-serif" font-size="11" lengthAdjust="spacingAndGlyphs" textLength="176" x="26" y="375.4292">setPrivateVar2(value: str): void</text><ellipse cx="17" cy="385.0234" fill="#84BE84" rx="3" ry="3" style="stroke: #038048; stroke-width: 1.0;"/><text fill="#000000" font-family="sans-serif" font-size="11" lengthAdjust="spacingAndGlyphs" textLength="128" x="26" y="388.2339">getProtectedVar2(): int</text><ellipse cx="17" cy="397.8281" fill="#84BE84" rx="3" ry="3" style="stroke: #038048; stroke-width: 1.0;"/><text fill="#000000" font-family="sans-serif" font-size="11" lengthAdjust="spacingAndGlyphs" textLength="189" x="26" y="401.0386">setProtectedVar2(value: int): void</text><ellipse cx="17" cy="410.6328" fill="#84BE84" rx="3" ry="3" style="stroke: #038048; stroke-width: 1.0;"/><text fill="#000000" font-family="sans-serif" font-size="11" lengthAdjust="spacingAndGlyphs" textLength="118" x="26" y="413.8433">getPublicVar2(): float</text><ellipse cx="17" cy="423.4375" fill="#84BE84" rx="3" ry="3" style="stroke: #038048; stroke-width: 1.0;"/><text fill="#000000" font-family="sans-serif" font-size="11" lengthAdjust="spacingAndGlyphs" textLength="179" x="26" y="426.6479">setPublicVar2(value: float): void</text><text fill="#000000" font-family="sans-serif" font-size="11" lengthAdjust="spacingAndGlyphs" textLength="0" x="30" y="439.4526"/><ellipse cx="17" cy="449.0469" fill="#84BE84" rx="3" ry="3" style="stroke: #038048; stroke-width: 1.0;"/><text fill="#000000" font-family="sans-serif" font-size="11" lengthAdjust="spacingAndGlyphs" textLength="138" x="26" y="452.2573">doSomethingElse(): void</text><ellipse cx="17" cy="461.8516" fill="#84BE84" rx="3" ry="3" style="stroke: #038048; stroke-width: 1.0;"/><text fill="#000000" font-family="sans-serif" font-size="11" lengthAdjust="spacingAndGlyphs" textLength="156" x="26" y="465.062">processData(input: str): str</text><!--MD5=[e3cc6d06644b91dda2b3b874ae70d9db]
class Class5--><rect fill="#FEFECE" filter="url(#f8fo0bak7urrq)" height="201.6563" id="Class5" style="stroke: #A80036; stroke-width: 1.5;" width="210" x="256.5" y="270"/><ellipse cx="336.75" cy="286" fill="#ADD1B2" rx="11" ry="11" style="stroke: #A80036; stroke-width: 1.0;"/><path d="M339.7188,291.6406 Q339.1406,291.9375 338.5,292.0781 Q337.8594,292.2344 337.1563,292.2344 Q334.6563,292.2344 333.3281,290.5938 Q332.0156,288.9375 332.0156,285.8125 Q332.0156,282.6875 333.3281,281.0313 Q334.6563,279.375 337.1563,279.375 Q337.8594,279.375 338.5,279.5313 Q339.1563,279.6875 339.7188,279.9844 L339.7188,282.7031 Q339.0938,282.125 338.5,281.8594 Q337.9063,281.5781 337.2813,281.5781 Q335.9375,281.5781 335.25,282.6563 Q334.5625,283.7188 334.5625,285.8125 Q334.5625,287.9063 335.25,288.9844 Q335.9375,290.0469 337.2813,290.0469 Q337.9063,290.0469 338.5,289.7813 Q339.0938,289.5 339.7188,288.9219 L339.7188,291.6406 Z "/><text fill="#000000" font-family="sans-serif" font-size="12" lengthAdjust="spacingAndGlyphs" textLength="41" x="357.25" y="290.1543">Class5</text><line style="stroke: #A80036; stroke-width: 1.5;" x1="257.5" x2="465.5" y1="302" y2="302"/><rect fill="none" height="6" style="stroke: #C82930; stroke-width: 1.0;" width="6" x="264.5" y="310"/><text fill="#000000" font-family="sans-serif" font-size="11" lengthAdjust="spacingAndGlyphs" textLength="80" x="276.5" y="316.2104">privateVar: int</text><polygon fill="none" points="267.5,320.8047,271.5,324.8047,267.5,328.8047,263.5,324.8047" style="stroke: #B38D22; stroke-width: 1.0;"/><text fill="#000000" font-family="sans-serif" font-size="11" lengthAdjust="spacingAndGlyphs" textLength="97" x="276.5" y="329.0151">protectedVar: str</text><ellipse cx="267.5" cy="338.6094" fill="none" rx="3" ry="3" style="stroke: #038048; stroke-width: 1.0;"/><text fill="#000000" font-family="sans-serif" font-size="11" lengthAdjust="spacingAndGlyphs" textLength="84" x="276.5" y="341.8198">publicVar: bool</text><line style="stroke: #A80036; stroke-width: 1.5;" x1="257.5" x2="465.5" y1="348.4141" y2="348.4141"/><ellipse cx="267.5" cy="359.4141" fill="#84BE84" rx="3" ry="3" style="stroke: #038048; stroke-width: 1.0;"/><text fill="#000000" font-family="sans-serif" font-size="11" lengthAdjust="spacingAndGlyphs" textLength="106" x="276.5" y="362.6245">getPrivateVar(): int</text><ellipse cx="267.5" cy="372.2188" fill="#84BE84" rx="3" ry="3" style="stroke: #038048; stroke-width: 1.0;"/><text fill="#000000" font-family="sans-serif" font-size="11" lengthAdjust="spacingAndGlyphs" textLength="167" x="276.5" y="375.4292">setPrivateVar(value: int): void</text><ellipse cx="267.5" cy="385.0234" fill="#84BE84" rx="3" ry="3" style="stroke: #038048; stroke-width: 1.0;"/><text fill="#000000" font-family="sans-serif" font-size="11" lengthAdjust="spacingAndGlyphs" textLength="123" x="276.5" y="388.2339">getProtectedVar(): str</text><ellipse cx="267.5" cy="397.8281" fill="#84BE84" rx="3" ry="3" style="stroke: #038048; stroke-width: 1.0;"/><text fill="#000000" font-family="sans-serif" font-size="11" lengthAdjust="spacingAndGlyphs" textLength="184" x="276.5" y="401.0386">setProtectedVar(value: str): void</text><ellipse cx="267.5" cy="410.6328" fill="#84BE84" rx="3" ry="3" style="stroke: #038048; stroke-width: 1.0;"/><text fill="#000000" font-family="sans-serif" font-size="11" lengthAdjust="spacingAndGlyphs" textLength="110" x="276.5" y="413.8433">getPublicVar(): bool</text><ellipse cx="267.5" cy="423.4375" fill="#84BE84" rx="3" ry="3" style="stroke: #038048; stroke-width: 1.0;"/><text fill="#000000" font-family="sans-serif" font-size="11" lengthAdjust="spacingAndGlyphs" textLength="171" x="276.5" y="426.6479">setPublicVar(value: bool): void</text><text fill="#000000" font-family="sans-serif" font-size="11" lengthAdjust="spacingAndGlyphs" textLength="0" x="280.5" y="439.4526"/><ellipse cx="267.5" cy="449.0469" fill="#84BE84" rx="3" ry="3" style="stroke: #038048; stroke-width: 1.0;"/><text fill="#000000" font-family="sans-serif" font-size="11" lengthAdjust="spacingAndGlyphs" textLength="114" x="276.5" y="452.2573">doSomething(): void</text><ellipse cx="267.5" cy="461.8516" fill="#84BE84" rx="3" ry="3" style="stroke: #038048; stroke-width: 1.0;"/><text fill="#000000" font-family="sans-serif" font-size="11" lengthAdjust="spacingAndGlyphs" textLength="175" x="276.5" y="465.062">calculateValue(x: int, y: int): int</text><!--MD5=[53157becf988d72e4dca1079f2d06dbd]
class Class6--><rect fill="#FEFECE" filter="url(#f8fo0bak7urrq)" height="201.6563" id="Class6" style="stroke: #A80036; stroke-width: 1.5;" width="215" x="502" y="270"/><ellipse cx="584.75" cy="286" fill="#ADD1B2" rx="11" ry="11" style="stroke: #A80036; stroke-width: 1.0;"/><path d="M587.7188,291.6406 Q587.1406,291.9375 586.5,292.0781 Q585.8594,292.2344 585.1563,292.2344 Q582.6563,292.2344 581.3281,290.5938 Q580.0156,288.9375 580.0156,285.8125 Q580.0156,282.6875 581.3281,281.0313 Q582.6563,279.375 585.1563,279.375 Q585.8594,279.375 586.5,279.5313 Q587.1563,279.6875 587.7188,279.9844 L587.7188,282.7031 Q587.0938,282.125 586.5,281.8594 Q585.9063,281.5781 585.2813,281.5781 Q583.9375,281.5781 583.25,282.6563 Q582.5625,283.7188 582.5625,285.8125 Q582.5625,287.9063 583.25,288.9844 Q583.9375,290.0469 585.2813,290.0469 Q585.9063,290.0469 586.5,289.7813 Q587.0938,289.5 587.7188,288.9219 L587.7188,291.6406 Z "/><text fill="#000000" font-family="sans-serif" font-size="12" lengthAdjust="spacingAndGlyphs" textLength="41" x="605.25" y="290.1543">Class6</text><line style="stroke: #A80036; stroke-width: 1.5;" x1="503" x2="716" y1="302" y2="302"/><rect fill="none" height="6" style="stroke: #C82930; stroke-width: 1.0;" width="6" x="510" y="310"/><text fill="#000000" font-family="sans-serif" font-size="11" lengthAdjust="spacingAndGlyphs" textLength="89" x="522" y="316.2104">privateVar2: str</text><polygon fill="none" points="513,320.8047,517,324.8047,513,328.8047,509,324.8047" style="stroke: #B38D22; stroke-width: 1.0;"/><text fill="#000000" font-family="sans-serif" font-size="11" lengthAdjust="spacingAndGlyphs" textLength="102" x="522" y="329.0151">protectedVar2: int</text><ellipse cx="513" cy="338.6094" fill="none" rx="3" ry="3" style="stroke: #038048; stroke-width: 1.0;"/><text fill="#000000" font-family="sans-serif" font-size="11" lengthAdjust="spacingAndGlyphs" textLength="92" x="522" y="341.8198">publicVar2: float</text><line style="stroke: #A80036; stroke-width: 1.5;" x1="503" x2="716" y1="348.4141" y2="348.4141"/><ellipse cx="513" cy="359.4141" fill="#84BE84" rx="3" ry="3" style="stroke: #038048; stroke-width: 1.0;"/><text fill="#000000" font-family="sans-serif" font-size="11" lengthAdjust="spacingAndGlyphs" textLength="115" x="522" y="362.6245">getPrivateVar2(): str</text><ellipse cx="513" cy="372.2188" fill="#84BE84" rx="3" ry="3" style="stroke: #038048; stroke-width: 1.0;"/><text fill="#000000" font-family="sans-serif" font-size="11" lengthAdjust="spacingAndGlyphs" textLength="176" x="522" y="375.4292">setPrivateVar2(value: str): void</text><ellipse cx="513" cy="385.0234" fill="#84BE84" rx="3" ry="3" style="stroke: #038048; stroke-width: 1.0;"/><text fill="#000000" font-family="sans-serif" font-size="11" lengthAdjust="spacingAndGlyphs" textLength="128" x="522" y="388.2339">getProtectedVar2(): int</text><ellipse cx="513" cy="397.8281" fill="#84BE84" rx="3" ry="3" style="stroke: #038048; stroke-width: 1.0;"/><text fill="#000000" font-family="sans-serif" font-size="11" lengthAdjust="spacingAndGlyphs" textLength="189" x="522" y="401.0386">setProtectedVar2(value: int): void</text><ellipse cx="513" cy="410.6328" fill="#84BE84" rx="3" ry="3" style="stroke: #038048; stroke-width: 1.0;"/><text fill="#000000" font-family="sans-serif" font-size="11" lengthAdjust="spacingAndGlyphs" textLength="118" x="522" y="413.8433">getPublicVar2(): float</text><ellipse cx="513" cy="423.4375" fill="#84BE84" rx="3" ry="3" style="stroke: #038048; stroke-width: 1.0;"/><text fill="#000000" font-family="sans-serif" font-size="11" lengthAdjust="spacingAndGlyphs" textLength="179" x="522" y="426.6479">setPublicVar2(value: float): void</text><text fill="#000000" font-family="sans-serif" font-size="11" lengthAdjust="spacingAndGlyphs" textLength="0" x="526" y="439.4526"/><ellipse cx="513" cy="449.0469" fill="#84BE84" rx="3" ry="3" style="stroke: #038048; stroke-width: 1.0;"/><text fill="#000000" font-family="sans-serif" font-size="11" lengthAdjust="spacingAndGlyphs" textLength="138" x="522" y="452.2573">doSomethingElse(): void</text><ellipse cx="513" cy="461.8516" fill="#84BE84" rx="3" ry="3" style="stroke: #038048; stroke-width: 1.0;"/><text fill="#000000" font-family="sans-serif" font-size="11" lengthAdjust="spacingAndGlyphs" textLength="156" x="522" y="465.062">processData(input: str): str</text><!--MD5=[5c217e4aeb1e3cff88f818337409e90f]
link Class1 to Class2--><!--MD5=[c1544d8926d913422569ff422da3e11f]
link Class2 to Class3--><!--MD5=[025c009c575b81028028d964b830fb16]
link Class1 to Class4--><!--MD5=[9ba4c1d4748ca3f1b1abd7a1daeee6df]
link Class4 to Class5--><!--MD5=[b75046c82f8f133b9da3335474ec172a]
link Class5 to Class6--><!--MD5=[1d88a501a422970cfc21a208113ecf3a]
@startuml
class Class1 {
  - privateVar: int
  # protectedVar: str
  + publicVar: bool

  + getPrivateVar(): int
  + setPrivateVar(value: int): void
  + getProtectedVar(): str
  + setProtectedVar(value: str): void
  + getPublicVar(): bool
  + setPublicVar(value: bool): void

  + doSomething(): void
  + calculateValue(x: int, y: int): int
}

class Class2 {
  - privateVar2: str
  # protectedVar2: int
  + publicVar2: float

  + getPrivateVar2(): str
  + setPrivateVar2(value: str): void
  + getProtectedVar2(): int
  + setProtectedVar2(value: int): void
  + getPublicVar2(): float
  + setPublicVar2(value: float): void

  + doSomethingElse(): void
  + processData(input: str): str
}

class Class3 {
  - privateVar: int
  # protectedVar: str
  + publicVar: bool

  + getPrivateVar(): int
  + setPrivateVar(value: int): void
  + getProtectedVar(): str
  + setProtectedVar(value: str): void
  + getPublicVar(): bool
  + setPublicVar(value: bool): void

  + doSomething(): void
  + calculateValue(x: int, y: int): int
}

class Class4 {
  - privateVar2: str
  # protectedVar2: int
  + publicVar2: float

  + getPrivateVar2(): str
  + setPrivateVar2(value: str): void
  + getProtectedVar2(): int
  + setProtectedVar2(value: int): void
  + getPublicVar2(): float
  + setPublicVar2(value: float): void

  + doSomethingElse(): void
  + processData(input: str): str
}

class Class5 {
  - privateVar: int
  # protectedVar: str
  + publicVar: bool

  + getPrivateVar(): int
  + setPrivateVar(value: int): void
  + getProtectedVar(): str
  + setProtectedVar(value: str): void
  + getPublicVar(): bool
  + setPublicVar(value: bool): void

  + doSomething(): void
  + calculateValue(x: int, y: int): int
}

class Class6 {
  - privateVar2: str
  # protectedVar2: int
  + publicVar2: float

  + getPrivateVar2(): str
  + setPrivateVar2(value: str): void
  + getProtectedVar2(): int
  + setProtectedVar2(value: int): void
  + getPublicVar2(): float
  + setPublicVar2(value: float): void

  + doSomethingElse(): void
  + processData(input: str): str
}

@enduml

PlantUML version 1.2020.02(Sun Mar 01 11:22:07 CET 2020)
(GPL source distribution)
Java Runtime: OpenJDK Runtime Environment
JVM: OpenJDK 64-Bit Server VM
Java Version: 11.0.20.1+1-post-Ubuntu-0ubuntu122.04
Operating System: Linux
Default Encoding: UTF-8
Language: de
Country: DE
--></g></svg>